<svg width="640" height="360" viewBox="0 0 640 360" fill="none" xmlns="http://www.w3.org/2000/svg">
  <rect width="640" height="360" rx="32" fill="#0B1220"/>
  <defs>
    <linearGradient id="grad" x1="0" y1="0" x2="1" y2="1">
      <stop offset="0%" stop-color="#1A6BFF"/>
      <stop offset="100%" stop-color="#00C9B1"/>
    </linearGradient>
    <filter id="glow" x="-20%" y="-20%" width="140%" height="140%" filterUnits="objectBoundingBox">
      <feGaussianBlur stdDeviation="8" result="blur"/>
      <feMerge><feMergeNode in="blur"/><feMergeNode in="SourceGraphic"/></feMerge>
    </filter>
  </defs>
  <rect x="32" y="32" width="576" height="296" rx="24" fill="url(#grad)" opacity="0.12"/>
  <path d="M192 156C192 134.673 208.673 118 230 118H232C253.327 118 270 134.673 270 156V216C270 228.15 260.15 238 248 238H226C213.85 238 204 228.15 204 216V178C204 168.06 196.94 160 187 160H185C175.06 160 168 167.06 168 177V216C168 228.15 158.15 238 146 238H126C113.85 238 104 228.15 104 216V156Z" fill="#0B1220" stroke="url(#grad)" stroke-width="16" filter="url(#glow)"/>
  <path d="M326 114C326 100.745 336.745 90 350 90C363.255 90 374 100.745 374 114V216C374 228.15 363.15 239 351 239H343C330.85 239 320 228.15 320 216V114Z" fill="#0B1220" stroke="url(#grad)" stroke-width="16" filter="url(#glow)"/>
  <path d="M428 128C428 113.745 438.745 103 452 103C465.255 103 476 113.745 476 128V216C476 228.15 465.15 239 453 239H445C432.85 239 422 228.15 422 216V128Z" fill="#0B1220" stroke="url(#grad)" stroke-width="16" filter="url(#glow)"/>
  <circle cx="256" cy="232" r="36" fill="#0B1220" stroke="url(#grad)" stroke-width="16" filter="url(#glow)"/>
  <path d="M392 156H520" stroke="url(#grad)" stroke-width="24" stroke-linecap="round" filter="url(#glow)"/>
  <path d="M456 116V196" stroke="url(#grad)" stroke-width="24" stroke-linecap="round" filter="url(#glow)"/>
  <text x="48" y="320" fill="#E2E4EF" font-family="Syne, sans-serif" font-size="32" font-weight="800">Gesture-Math</text>
  <text x="48" y="352" fill="#A3A6B8" font-family="Cabinet Grotesk, sans-serif" font-size="16">Hand-tracking arithmetic game</text>
</svg>
